<svg width="37" height="50" viewBox="0 0 37 50" fill="none" xmlns="http://www.w3.org/2000/svg">
<path d="M18.6027 0.698975C8.57148 0.698975 0.602726 8.85522 0.602726 18.699C0.602726 25.449 2.75898 27.5115 14.759 46.6365C16.5402 49.449 20.5715 49.449 22.3527 46.6365C34.3527 27.5115 36.6027 25.449 36.6027 18.699C36.6027 8.76147 28.4465 0.698975 18.6027 0.698975ZM18.6027 44.199C6.60273 25.074 5.10273 23.8552 5.10273 18.699C5.10273 11.2927 11.1027 5.19897 18.6027 5.19897C26.009 5.19897 32.1027 11.2927 32.1027 18.699C32.1027 23.8552 30.6027 24.8865 18.6027 44.199ZM11.1027 18.699C11.1027 22.9177 14.384 26.199 18.6027 26.199C22.7277 26.199 26.1027 22.9177 26.1027 18.699C26.1027 14.574 22.7277 11.199 18.6027 11.199C14.384 11.199 11.1027 14.574 11.1027 18.699Z" fill="#F7654A"/>
</svg>
