<svg width="49" height="49" viewBox="0 0 49 49" fill="none" xmlns="http://www.w3.org/2000/svg">
<path d="M45.0115 2.85522L36.199 0.886475C34.1365 0.417725 32.074 1.44897 31.324 3.32397L27.199 12.8865C26.449 14.574 26.9177 16.6365 28.4177 17.8552L32.1677 20.949C29.5427 25.824 25.4177 29.8552 20.5427 32.574L17.449 28.824C16.2302 27.324 14.1677 26.8552 12.4802 27.6052L2.91773 31.6365C1.04273 32.4802 0.0114784 34.5427 0.480228 36.6052L2.44898 45.4177C2.91773 47.3865 4.69898 48.699 6.66773 48.699C29.6365 48.699 48.3865 30.1365 48.3865 7.07397C48.3865 5.10522 46.9802 3.32397 45.0115 2.85522ZM6.85523 44.199L4.88648 35.7615L14.074 31.824L19.324 38.199C28.6052 33.7927 33.3865 29.0115 37.7927 19.7302L31.4177 14.4802L35.3552 5.29272L43.8865 7.26147C43.7927 27.6052 27.199 44.1052 6.85523 44.199Z" fill="#F7654A"/>
</svg>
