<svg width="48" height="47" viewBox="0 0 48 47" fill="none" xmlns="http://www.w3.org/2000/svg">
<path d="M24.1703 0.448975C11.3265 0.448975 0.920261 10.8552 0.920261 23.699C0.920261 36.5427 11.3265 46.949 24.1703 46.949C37.014 46.949 47.4203 36.5427 47.4203 23.699C47.4203 10.8552 37.014 0.448975 24.1703 0.448975ZM24.1703 42.449C13.764 42.449 5.42026 34.1052 5.42026 23.699C5.42026 13.3865 13.764 4.94897 24.1703 4.94897C34.4828 4.94897 42.9203 13.3865 42.9203 23.699C42.9203 34.1052 34.4828 42.449 24.1703 42.449ZM29.889 32.699C30.4515 33.074 31.1078 32.9802 31.4828 32.4177L33.264 30.074C33.639 29.5115 33.5453 28.8552 32.9828 28.4802L26.7953 23.8865V10.574C26.7953 10.0115 26.2328 9.44897 25.6703 9.44897H22.6703C22.014 9.44897 21.5453 10.0115 21.5453 10.574V26.0427C21.5453 26.324 21.639 26.699 21.9203 26.8865L29.889 32.699Z" fill="#F7654A"/>
</svg>
